<svg width="173" height="25" viewBox="0 0 173 25" fill="none" xmlns="http://www.w3.org/2000/svg">
<g clip-path="url(#clip0_32_96)">
<path d="M13.6006 9.03955V6.03955C13.6006 5.21155 14.2726 4.53955 15.1006 4.53955H16.6006V0.789551H13.6006C11.1151 0.789551 9.10059 2.80405 9.10059 5.28955V9.03955H6.10059V12.7896H9.10059V24.7896H13.6006V12.7896H16.6006L18.1006 9.03955H13.6006Z" fill="#222222"/>
</g>
<g clip-path="url(#clip1_32_96)">
<path d="M98.1007 5.34805C97.2082 5.73955 96.2572 5.99905 95.2657 6.12505C96.2857 5.51605 97.0642 4.55905 97.4302 3.40555C96.4792 3.97255 95.4292 4.37305 94.3102 4.59655C93.4072 3.63505 92.1202 3.03955 90.7162 3.03955C87.9922 3.03955 85.7992 5.25055 85.7992 7.96105C85.7992 8.35105 85.8322 8.72605 85.9132 9.08305C81.8227 8.88355 78.2032 6.92305 75.7717 3.93655C75.3472 4.67305 75.0982 5.51605 75.0982 6.42355C75.0982 8.12755 75.9757 9.63805 77.2837 10.5126C76.4932 10.4976 75.7177 10.2681 75.0607 9.90655C75.0607 9.92155 75.0607 9.94105 75.0607 9.96055C75.0607 12.3516 76.7662 14.3376 79.0027 14.7951C78.6022 14.9046 78.1657 14.9571 77.7127 14.9571C77.3977 14.9571 77.0797 14.9391 76.7812 14.8731C77.4187 16.8216 79.2277 18.2541 81.3787 18.3006C79.7047 19.6101 77.5792 20.3991 75.2782 20.3991C74.8747 20.3991 74.4877 20.3811 74.1007 20.3316C76.2802 21.7371 78.8632 22.5396 81.6487 22.5396C90.7027 22.5396 95.6527 15.0396 95.6527 8.53855C95.6527 8.32105 95.6452 8.11105 95.6347 7.90255C96.6112 7.20955 97.4317 6.34405 98.1007 5.34805Z" fill="#222222"/>
</g>
<g clip-path="url(#clip2_32_96)">
<path d="M172.077 7.84562C172.021 6.5704 171.815 5.69371 171.519 4.93404C171.215 4.12767 170.746 3.40572 170.132 2.80557C169.531 2.19608 168.805 1.72247 168.008 1.42249C167.244 1.12708 166.371 0.920863 165.096 0.864639C163.811 0.803653 163.404 0.789551 160.145 0.789551C156.887 0.789551 156.479 0.803653 155.199 0.859877C153.924 0.916101 153.047 1.1225 152.288 1.41773C151.481 1.72247 150.759 2.19131 150.159 2.80557C149.549 3.40572 149.076 4.13243 148.776 4.92946C148.48 5.69371 148.274 6.56564 148.218 7.84085C148.157 9.12559 148.143 9.53345 148.143 12.7919C148.143 16.0503 148.157 16.4582 148.213 17.7382C148.269 19.0134 148.476 19.8901 148.771 20.6498C149.076 21.4561 149.549 22.1781 150.159 22.7782C150.759 23.3877 151.486 23.8613 152.283 24.1613C153.047 24.4567 153.919 24.6629 155.194 24.7192C156.474 24.7756 156.882 24.7895 160.141 24.7895C163.399 24.7895 163.807 24.7756 165.087 24.7192C166.362 24.6629 167.239 24.4567 167.998 24.1613C169.611 23.5377 170.886 22.2625 171.51 20.6498C171.805 19.8855 172.012 19.0134 172.068 17.7382C172.124 16.4582 172.138 16.0503 172.138 12.7919C172.138 9.53345 172.133 9.12559 172.077 7.84562ZM169.916 17.6444C169.864 18.8165 169.667 19.4494 169.503 19.8714C169.1 20.917 168.27 21.7468 167.225 22.15C166.803 22.3141 166.165 22.511 164.998 22.5625C163.732 22.6189 163.352 22.6328 160.15 22.6328C156.948 22.6328 156.563 22.6189 155.302 22.5625C154.13 22.511 153.497 22.3141 153.075 22.15C152.555 21.9577 152.081 21.653 151.697 21.2545C151.298 20.8653 150.993 20.3965 150.801 19.8762C150.637 19.4542 150.44 18.8165 150.389 17.6492C150.332 16.3833 150.318 16.0035 150.318 12.8012C150.318 9.59901 150.332 9.2146 150.389 7.95349C150.44 6.78138 150.637 6.14845 150.801 5.72649C150.993 5.206 151.298 4.73258 151.701 4.34799C152.09 3.94947 152.559 3.64472 153.08 3.45261C153.502 3.28851 154.139 3.09164 155.307 3.03999C156.573 2.98377 156.952 2.96966 160.155 2.96966C163.362 2.96966 163.741 2.98377 165.002 3.03999C166.175 3.09164 166.808 3.28851 167.229 3.45261C167.75 3.64472 168.223 3.94947 168.608 4.34799C169.006 4.73716 169.311 5.206 169.503 5.72649C169.667 6.14845 169.864 6.78596 169.916 7.95349C169.972 9.21936 169.986 9.59901 169.986 12.8012C169.986 16.0035 169.972 16.3785 169.916 17.6444Z" fill="#222222"/>
<path d="M160.145 6.62646C156.742 6.62646 153.98 9.38787 153.98 12.7917C153.98 16.1956 156.742 18.957 160.145 18.957C163.549 18.957 166.311 16.1956 166.311 12.7917C166.311 9.38787 163.549 6.62646 160.145 6.62646ZM160.145 16.791C157.937 16.791 156.146 15 156.146 12.7917C156.146 10.5834 157.937 8.79248 160.145 8.79248C162.354 8.79248 164.145 10.5834 164.145 12.7917C164.145 15 162.354 16.791 160.145 16.791Z" fill="#222222"/>
<path d="M167.994 6.38291C167.994 7.17775 167.349 7.82222 166.554 7.82222C165.759 7.82222 165.115 7.17775 165.115 6.38291C165.115 5.58789 165.759 4.9436 166.554 4.9436C167.349 4.9436 167.994 5.58789 167.994 6.38291Z" fill="#222222"/>
</g>
<defs>
<clipPath id="clip0_32_96">
<rect width="24" height="24" fill="white" transform="translate(0.100586 0.789551)"/>
</clipPath>
<clipPath id="clip1_32_96">
<rect width="24" height="24" fill="white" transform="translate(74.1007 0.789551)"/>
</clipPath>
<clipPath id="clip2_32_96">
<rect width="24" height="24" fill="white" transform="translate(148.101 0.789551)"/>
</clipPath>
</defs>
</svg>
